<?xml version="1.0" encoding="utf-8"?>
<!-- Generator: Adobe Illustrator 25.4.1, SVG Export Plug-In . SVG Version: 6.00 Build 0)  -->
<svg version="1.1" id="Capa_1" xmlns="http://www.w3.org/2000/svg" xmlns:xlink="http://www.w3.org/1999/xlink" x="0px" y="0px"
	 viewBox="0 0 512 512" style="enable-background:new 0 0 512 512;" xml:space="preserve">
<style type="text/css">
	.st0{fill:#FFFFFF;}
</style>
<g>
	<path class="st0" d="M474.4,30.1H310.7c-4.2,0-7.5,3.4-7.5,7.5s3.4,7.5,7.5,7.5h163.8c12.4,0,22.5,10.1,22.5,22.5v263h-36l0-230.8
		c0-12.4-10.1-22.5-22.5-22.5H73.6c-12.4,0-22.5,10.1-22.5,22.5v230.8H15v-263c0-12.4,10.1-22.5,22.5-22.5h243
		c4.2,0,7.5-3.4,7.5-7.5s-3.4-7.5-7.5-7.5h-243C16.9,30.1,0,47,0,67.7v303.8c0,20.7,16.9,37.6,37.6,37.6h165.2l-7.6,57.8h-26.7
		c-4.2,0-7.5,3.4-7.5,7.5s3.4,7.5,7.5,7.5h174.9c4.2,0,7.5-3.4,7.5-7.5s-3.4-7.5-7.5-7.5h-26.7l-7.6-57.8h79.6
		c4.2,0,7.5-3.4,7.5-7.5s-3.4-7.5-7.5-7.5H37.6C25.1,394.1,15,384,15,371.5v-25.8H497v25.8c0,12.4-10.1,22.5-22.5,22.5h-55.5
		c-4.2,0-7.5,3.4-7.5,7.5s3.4,7.5,7.5,7.5h55.5c20.7,0,37.6-16.9,37.6-37.6V67.7C512,47,495.1,30.1,474.4,30.1L474.4,30.1z
		 M301.6,466.9h-91.2l7.6-57.8H294L301.6,466.9z M66.1,99.8c0-4.1,3.4-7.5,7.5-7.5h364.8c4.1,0,7.5,3.4,7.5,7.5v37H66.1L66.1,99.8z
		 M66.1,151.9h379.8v178.8h-36.5v-33.5c0-4.1-3.4-7.5-7.5-7.5H274c-4.2,0-7.5,3.4-7.5,7.5v33.5h-20.9v-33.5c0-4.1-3.4-7.5-7.5-7.5
		H110.1c-4.2,0-7.5,3.4-7.5,7.5v33.5H66.1L66.1,151.9z M394.3,330.7H281.5v-26h112.8V330.7z M230.5,330.7H117.7v-26h112.8V330.7z"/>
	<path class="st0" d="M94.7,102.5c-6.4,0-11.5,5.2-11.5,11.5s5.2,11.5,11.5,11.5s11.5-5.2,11.5-11.5
		C106.3,107.6,101.1,102.5,94.7,102.5z"/>
	<path class="st0" d="M131.8,102.5c-6.4,0-11.5,5.2-11.5,11.5s5.2,11.5,11.5,11.5s11.5-5.2,11.5-11.5S138.2,102.5,131.8,102.5
		L131.8,102.5z"/>
	<path class="st0" d="M168.8,102.5c-6.4,0-11.5,5.2-11.5,11.5s5.2,11.5,11.5,11.5c6.4,0,11.5-5.2,11.5-11.5S175.2,102.5,168.8,102.5
		L168.8,102.5z"/>
	<path class="st0" d="M110.1,271.3h54.7c4.2,0,7.5-3.4,7.5-7.5s-3.4-7.5-7.5-7.5h-47.2v-65.9h276.7v65.9H194.9
		c-4.2,0-7.5,3.4-7.5,7.5s3.4,7.5,7.5,7.5h207c4.2,0,7.5-3.4,7.5-7.5v-81c0-4.1-3.4-7.5-7.5-7.5H110.1c-4.2,0-7.5,3.4-7.5,7.5v81
		C102.6,268,106,271.3,110.1,271.3L110.1,271.3z"/>
</g>
</svg>
