<?xml version="1.0" encoding="utf-8"?>
<!-- Generator: Adobe Illustrator 25.4.1, SVG Export Plug-In . SVG Version: 6.00 Build 0)  -->
<svg version="1.1" id="Capa_1" xmlns="http://www.w3.org/2000/svg" xmlns:xlink="http://www.w3.org/1999/xlink" x="0px" y="0px"
	 viewBox="0 0 512 512" style="enable-background:new 0 0 512 512;" xml:space="preserve">
<style type="text/css">
	.st0{fill:#FFFFFF;}
</style>
<g>
	<path class="st0" d="M488.7,413.2c-0.5,0-1,0.1-1.2,0.1h-46c-11.9,0-21.8-9.1-22.9-20.9c1.1-11.7,11-20.9,22.9-20.9h46
		c0.3,0,0.7,0,1.3,0.1c5.5,0.4,16.9,1.2,21.6-7c4.8-8.4-2.1-18.6-4.4-21.9c-15.8-23-41.7-36.8-69.5-36.8c-1.1,0-2.3,0-3.4,0.1
		c11.1-24.7,16.9-51.8,16.9-79.2c0-47.9-11.2-82-48.3-127.6C366.1,58.7,314,33.2,256,33.2h-24.7c-12.3,0-22.3,10-22.3,22.3v11.3
		c-11.5,3.4-22.6,7.9-33.1,13.7l-8-8c-4.2-4.2-9.8-6.5-15.8-6.5c-6,0-11.6,2.3-15.8,6.5l-35,34.9c-4.2,4.2-6.5,9.8-6.5,15.7
		c0,6,2.3,11.5,6.5,15.7l8,8c-5.7,10.5-10.3,21.5-13.7,33H84.3C72,179.8,62,189.8,62,202v49.4c0,12.3,10,22.3,22.3,22.3h11.4
		c3.4,11.4,7.9,22.5,13.7,33l-4.5,4.5c-9.2-3.4-19.1-5.3-29.3-5.3c-27.7,0-53.7,13.7-69.5,36.8c-2.3,3.3-9.2,13.5-4.4,21.9
		c4.7,8.3,16.1,7.4,21.6,7c0.5,0,0.9-0.1,1.2-0.1h46c11.9,0,21.9,9.1,22.9,20.9c-1,11.8-11,20.9-22.9,20.9h-46c-0.3,0-0.7,0-1.3-0.1
		c-5.5-0.4-16.8-1.3-21.6,7c-4.8,8.4,2.1,18.6,4.4,21.9c15.7,23,41.7,36.8,69.5,36.8c33.2,0,63.5-19.9,76.9-50h87.9
		c4.1,0,7.5-3.4,7.5-7.5c0-4.1-3.4-7.5-7.5-7.5h-92.9c-3.1,0-5.9,1.9-7,4.9c-10,27-36.1,45.1-64.9,45.1c-22.8,0-44.1-11.3-57.1-30.2
		c-1.8-2.6-2.7-4.4-3.1-5.5c1.4-0.2,3.7-0.2,6.8,0.1c0.9,0.1,1.7,0.1,2.4,0.1h46c19.9,0,36.6-15.5,37.9-35.4c0-0.3,0-0.7,0-1
		c-1.3-19.8-18-35.4-37.9-35.4h-46c-0.7,0-1.4,0.1-2.3,0.1c-3.1,0.2-5.4,0.2-6.8,0c0.4-1.1,1.3-2.9,3.1-5.5
		c12.9-18.9,34.3-30.2,57.1-30.2c28.8,0,54.8,18.1,64.9,45.2c1.1,2.9,3.9,4.9,7,4.9h217.1c3.1,0,5.9-2,7-4.9
		c2.3-6.2,17.4-44.3,64.8-45.2c22.8-0.4,44.1,11.3,57.1,30.2c1.8,2.7,2.7,4.4,3.1,5.5c-1.4,0.2-3.7,0.2-6.8,0
		c-0.9-0.1-1.7-0.1-2.3-0.1h-46c-19.9,0-36.6,15.5-37.9,35.4c0,0.3,0,0.7,0,1c1.4,19.8,18,35.4,37.9,35.4h46c0.7,0,1.4,0,2.4-0.1
		c3.1-0.2,5.4-0.2,6.8-0.1c-0.4,1.1-1.3,2.9-3.1,5.5c-13,18.9-34.3,30.2-57.1,30.2c-28.7,0-54.8-18.1-64.9-45.1
		c-1.1-2.9-3.9-4.9-7-4.9h-90c-3.3,0-6.1,2.1-7.1,5.1c-0.3,0.8-0.4,1.6-0.4,2.4c0,4.1,3.4,7.5,7.5,7.5h84.9
		c13.4,30.1,43.7,50,76.9,50c27.7,0,53.7-13.7,69.5-36.8c2.3-3.3,9.2-13.5,4.4-21.9C505.6,411.9,494.2,412.7,488.7,413.2
		L488.7,413.2z M248.5,129c-41.4,3.1-76.8,32.2-87.5,72.7c-1,4,1.3,8.1,5.3,9.2c4,1.1,8.1-1.3,9.2-5.3c9-34,38.4-58.4,73-61.5v165.4
		c-37.5-3.3-68.3-31.2-74.6-68.9c-0.7-4.1-4.5-6.8-8.6-6.2c-4.1,0.7-6.8,4.5-6.2,8.6c3.8,22.6,15.5,43.3,33.1,58.3
		c15.8,13.5,35.6,21.6,56.3,23.2v31.4h-96c-7.1-15.9-18.9-29-33.4-37.8l4.9-4.9c2.4-2.4,2.9-6.2,1.1-9.1
		c-7.4-12.4-12.9-25.8-16.5-39.7c-0.8-3.3-3.8-5.6-7.3-5.6H84.3c-4,0-7.3-3.3-7.3-7.3v-49.4c0-4,3.3-7.3,7.3-7.3h17.1
		c3.4,0,6.4-2.3,7.3-5.6c3.6-14,9.1-27.3,16.5-39.7c1.7-2.9,1.3-6.7-1.1-9.1l-12.1-12.1c-1.4-1.4-2.1-3.2-2.1-5.1
		c0-1.9,0.7-3.8,2.1-5.1l35-34.9c1.4-1.4,3.2-2.1,5.2-2.1c2,0,3.8,0.8,5.2,2.1l12.1,12c2.4,2.4,6.2,2.9,9.1,1.1
		c12.4-7.4,25.8-12.9,39.8-16.5c3.3-0.8,5.6-3.8,5.6-7.3v-17c0-4,3.3-7.3,7.3-7.3h17.2L248.5,129z M395.1,114.5
		c23.5,28.9,38.1,65.2,39.7,104.8h-86.5c-0.5-30.7-4.3-59.3-10.7-84.5C359,129.8,378.5,123,395.1,114.5L395.1,114.5z M322.7,315.7
		c-18.8-3.4-38.8-5.4-59.2-5.8v-75.6h69.8C332.7,263.6,328.9,291.4,322.7,315.7L322.7,315.7z M263.5,219.2v-75.6
		c20.4-0.4,40.4-2.4,59.2-5.8c6.2,24.3,10,52.1,10.6,81.4H263.5z M318.6,123.3c-17.5,3.1-36.1,4.9-55.1,5.3V49
		C285.9,54.3,305.8,82.7,318.6,123.3z M384.8,102.8c-14.9,7.3-32.3,13.2-51.2,17.5c-8.9-28.8-21.4-52.1-36.2-67.3
		C331.2,61,361.4,78.7,384.8,102.8z M263.5,355.9v-31c19,0.4,37.6,2.2,55.1,5.3c-2.9,9.3-6.2,17.9-9.8,25.8H263.5z M359.5,355.9
		h-34.3c3-7.2,5.8-14.8,8.2-22.8c11.8,2.7,22.9,5.9,33.3,9.8C364,347,361.6,351.3,359.5,355.9z M376.8,330.8
		c-12.1-4.8-25.3-8.8-39.3-12.1c6.5-25.7,10.2-54.5,10.7-84.5h86.5c-1.1,26-7.9,51.5-19.8,74.4C400.5,312.5,387.3,320.2,376.8,330.8
		z"/>
</g>
</svg>
