<?xml version="1.0" encoding="utf-8"?>
<!-- Generator: Adobe Illustrator 25.4.1, SVG Export Plug-In . SVG Version: 6.00 Build 0)  -->
<svg version="1.1" id="Capa_1" xmlns="http://www.w3.org/2000/svg" xmlns:xlink="http://www.w3.org/1999/xlink" x="0px" y="0px"
	 viewBox="0 0 512 512" style="enable-background:new 0 0 512 512;" xml:space="preserve">
<style type="text/css">
	.st0{fill:#FFFFFF;}
</style>
<g>
	<path class="st0" d="M293.2,449c0-11.6-9.5-21.1-21.1-21.1S251,437.3,251,449s9.5,21.1,21.1,21.1S293.2,460.6,293.2,449z
		 M272.1,455.1c-3.4,0-6.1-2.7-6.1-6.1s2.7-6.1,6.1-6.1s6.1,2.7,6.1,6.1S275.5,455.1,272.1,455.1z"/>
	<path class="st0" d="M272.1,118.1c-31.2,0-56.6,25.4-56.6,56.6c0,19.6,10.1,37,25.3,47.1c0.1,0.1,0.2,0.2,0.3,0.2
		c9,5.9,19.7,9.2,30.9,9.2c11.7,0,24.4-4.4,31.2-9.4c15.3-10.1,25.3-27.5,25.3-47.1C328.7,143.5,303.3,118.1,272.1,118.1z
		 M286.7,213.6c-4.6,1.7-9.6,2.6-14.6,2.6c-5,0-10-0.9-14.6-2.6c-0.1-0.1-0.3-0.1-0.4-0.2c4.2-3.4,9.4-5.3,15-5.3s10.8,1.9,15,5.3
		C287,213.5,286.8,213.5,286.7,213.6z M300.3,205.2c-7.2-7.7-17.3-12.1-28.1-12.1s-20.9,4.4-28.1,12.1c-8.2-7.6-13.4-18.5-13.4-30.5
		c0-22.9,18.6-41.6,41.6-41.6s41.6,18.6,41.6,41.6C313.7,186.7,308.5,197.6,300.3,205.2L300.3,205.2z"/>
	<path class="st0" d="M272.1,143c-13,0-23.6,10.6-23.6,23.6s10.6,23.6,23.6,23.6s23.6-10.6,23.6-23.6S285.1,143,272.1,143z
		 M272.1,175.2c-4.7,0-8.6-3.9-8.6-8.6c0-4.7,3.9-8.6,8.6-8.6c4.7,0,8.6,3.9,8.6,8.6C280.7,171.3,276.9,175.2,272.1,175.2z"/>
	<path class="st0" d="M259.9,68.8h24.4c4.1,0,7.5-3.4,7.5-7.5s-3.4-7.5-7.5-7.5h-24.4c-4.1,0-7.5,3.4-7.5,7.5S255.8,68.8,259.9,68.8
		z"/>
	<path class="st0" d="M311.4,252.9h-78.6c-6.6,0-12,5.4-12,12v24c0,6.6,5.4,12,12,12h78.6c6.6,0,12-5.4,12-12v-24
		C323.4,258.3,318,252.9,311.4,252.9L311.4,252.9z M308.4,285.8h-72.5v-17.9h72.5V285.8z"/>
	<path class="st0" d="M311.4,322.4h-78.6c-6.6,0-12,5.4-12,12c0,4.1,3.4,7.5,7.5,7.5c3.1,0,5.7-1.8,6.9-4.5h73.1v17.9H178.5
		c-4.1,0-7.5,3.4-7.5,7.5s3.4,7.5,7.5,7.5h132.9c6.6,0,12-5.4,12-12v-24C323.4,327.8,318,322.4,311.4,322.4L311.4,322.4z"/>
	<path class="st0" d="M504.5,175.2h-86.9V53.5c0-18.1-14.7-32.8-32.8-32.8H159.5c-18.1,0-32.8,14.7-32.8,32.8v108.1L105,124
		c2.7-2.9,4.7-6.5,5.8-10.4c1.7-6.3,0.8-13-2.5-18.7c-5.5-9.6-16.6-14-26.9-11.7c-5.8-9-14.6-15.4-25-18.2
		c-11.2-3-22.8-1.5-32.8,4.3c-10,5.8-17.2,15.1-20.1,26.2c-2.8,10.4-1.6,21.2,3.2,30.8c-7.2,7.7-8.9,19.5-3.3,29.1
		c3.3,5.7,8.6,9.8,14.9,11.5c2.1,0.6,4.3,0.8,6.4,0.8c1.8,0,3.7-0.2,5.5-0.6l78.8,136.5c0,0,0,0,0,0l0.1,0.1c0,0,0.1,0.1,0.1,0.1
		c1.1,1.9,0.6,1.2,17.7,13v97.2v44.4c0,18.1,14.7,32.8,32.8,32.8h97.7c4.1,0,7.5-3.4,7.5-7.5s-3.4-7.5-7.5-7.5h-97.7
		c-9.8,0-17.8-8-17.8-17.8v-36.8h260.9v36.8c0,9.8-8,17.8-17.8,17.8h-97.7c-4.1,0-7.5,3.4-7.5,7.5s3.4,7.5,7.5,7.5h97.7
		c18.1,0,32.8-14.7,32.8-32.8V353h86.9c4.1,0,7.5-3.4,7.5-7.5s-3.4-7.5-7.5-7.5h-86.9V190.2h86.9c4.1,0,7.5-3.4,7.5-7.5
		C512,178.5,508.6,175.2,504.5,175.2L504.5,175.2z M17.9,99.5c2-7.3,6.6-13.4,13.2-17.1c6.5-3.8,14.1-4.8,21.4-2.8
		c6.2,1.7,11.5,5.3,15.3,10.3l-48.5,28C16.7,112.1,16.2,105.7,17.9,99.5z M29.6,151.4C29.6,151.4,29.6,151.4,29.6,151.4l-0.2,0.1
		c-2.2,1.3-4.8,1.6-7.3,1c-2.5-0.7-4.5-2.3-5.8-4.5s-1.6-4.8-1-7.3s2.3-4.5,4.5-5.8l62.1-35.9l0,0c0,0,0,0,0,0l0.2-0.1
		c2.2-1.3,4.8-1.6,7.3-1c2.5,0.7,4.5,2.3,5.8,4.5s1.6,4.8,1,7.3c-0.7,2.5-2.3,4.5-4.5,5.8L29.6,151.4z M113.2,281.1L43.6,160.6
		l18-10.4l13.2,22.8c1.4,2.4,3.9,3.8,6.5,3.8c1.3,0,2.6-0.3,3.7-1c3.6-2.1,4.8-6.7,2.7-10.2l-13.2-22.8l18-10.4l35.1,60.7
		c0,0,0,0,0,0l34.5,59.7c-3.8,0.1-7.3,1-10.4,2.8c-3.1,1.8-5.6,4.3-7.6,7.6l-41.1-71.1c-2.1-3.6-6.7-4.8-10.2-2.7
		c-3.6,2.1-4.8,6.7-2.7,10.2l41,71.1c-3.8,0.1-7.3,1-10.4,2.8C117.7,275.3,115.2,277.8,113.2,281.1L113.2,281.1z M138.4,306.8
		C138.4,306.8,138.4,306.8,138.4,306.8l-14.9-10.3c0.9-5.2,2.6-8.7,4.8-10c2.8-1.6,8.1-0.7,14.9,2.5c0.1,0,0.1,0,0.2,0.1
		c4.7,2,9.9-1,10.5-6.1c0,0,0-0.1,0-0.1c0.6-7.5,2.5-12.6,5.3-14.2c2.2-1.3,6.1-1,11,0.8l2.6,32.5l-22.6,13L138.4,306.8z
		 M174.2,318.5l0.8,10.5c0.1,0.7-0.2,1.1-0.8,1.5c-0.6,0.3-1.1,0.3-1.7-0.1l-8.6-6L174.2,318.5z M402.6,175.2h-54.1
		c-4.1,0-7.5,3.4-7.5,7.5s3.4,7.5,7.5,7.5h54.1V338h-54.1c-4.1,0-7.5,3.4-7.5,7.5s3.4,7.5,7.5,7.5h54.1v53.7H141.7v-79.4l22.4,15.4
		c2.8,2,6.1,3,9.4,3c2.8,0,5.7-0.7,8.3-2.2c5.6-3.2,8.7-9.2,8.2-15.7c-5.4-66.7-5.1-64.9-5.8-66.5c-0.1-0.1-0.3-0.6-0.3-0.6
		l-42.1-73V53.5c0-9.8,8-17.8,17.8-17.8h225.3c9.8,0,17.8,8,17.8,17.8L402.6,175.2L402.6,175.2z"/>
	<path class="st0" d="M504.5,148.9h-48.7c-4.1,0-7.5,3.4-7.5,7.5s3.4,7.5,7.5,7.5h48.7c4.1,0,7.5-3.4,7.5-7.5
		S508.6,148.9,504.5,148.9z"/>
	<path class="st0" d="M455.8,137.6h48.7c4.1,0,7.5-3.4,7.5-7.5s-3.4-7.5-7.5-7.5h-48.7c-4.1,0-7.5,3.4-7.5,7.5
		S451.7,137.6,455.8,137.6z"/>
	<path class="st0" d="M504.5,311.7h-48.7c-4.1,0-7.5,3.4-7.5,7.5s3.4,7.5,7.5,7.5h48.7c4.1,0,7.5-3.4,7.5-7.5
		C512,315.1,508.6,311.7,504.5,311.7z"/>
	<path class="st0" d="M504.5,285.4h-48.7c-4.1,0-7.5,3.4-7.5,7.5s3.4,7.5,7.5,7.5h48.7c4.1,0,7.5-3.4,7.5-7.5
		C512,288.8,508.6,285.4,504.5,285.4z"/>
</g>
</svg>
